# AST/ASF file generated using VICON BodyLanguage
# -----------------------------------------------
:version 1.10
:name VICON
:units
  mass 1.0
  length 0.45
  angle deg
:documentation
   .ast/.asf automatically generated from VICON data using
   VICON BodyBuilder and BodyLanguage model FoxedUp or BRILLIANT.MOD
:root
   order TX TY TZ RX RY RZ
   axis XYZ
   position 0 0 0  
   orientation 0 0 0 
:bonedata
  begin
     id 1 
     name lhipjoint
     direction 0.702568 -0.596508 0.388042 
     length 2.56661 
     axis 0 0 0  XYZ
  end
  begin
     id 2 
     name lfemur
     direction 0.34202 -0.939693 0  
     length 6.58374  
     axis 0 0 20  XYZ
    dof rx ry rz
    limits (-160.0 20.0)
           (-70.0 70.0)
           (-60.0 70.0)
  end
  begin
     id 3 
     name ltibia
     direction 0.34202 -0.939693 0   
     length 6.62538   
     axis 0 0 20   XYZ
    dof rx
    limits (-10.0 170.0)
  end
  begin
     id 4 
     name lfoot
     direction 0.10455 -0.287249 0.952133   
     length 2.26699   
     axis -90 7.62852e-016 20   XYZ
    dof rx rz
    limits (-45.0 90.0)
           (-70.0 20.0)
  end
  begin
     id 5 
     name ltoes
     direction 1.53572e-011 -4.22322e-011 1   
     length 1.12949   
     axis -90 7.62852e-016 20   XYZ
    dof rx
    limits (-90.0 20.0)
  end
  begin
     id 6 
     name rhipjoint
     direction -0.728055 -0.574632 0.373811   
     length 2.66432  
     axis 0 0 0  XYZ 
  end
  begin
     id 7 
     name rfemur
     direction -0.34202 -0.939693 0   
     length 6.66732   
     axis 0 0 -20   XYZ
    dof rx ry rz
    limits (-160.0 20.0)
           (-70.0 70.0)
           (-70.0 60.0)
  end
  begin
     id 8 
     name rtibia
     direction -0.34202 -0.939693 0   
     length 6.59288   
     axis 0 0 -20   XYZ
    dof rx
    limits (-10.0 170.0)
 end
 begin
     id 9 
     name rfoot
     direction -0.119193 -0.327479 0.93731   
     length 2.38061  
     axis -90 -7.62852e-016 -20   XYZ
    dof rx rz
    limits (-45.0 90.0)
           (-20.0 70.0)
  end
  begin
     id 10 
     name rtoes
     direction -1.53547e-011 -4.21827e-011 1   
     length 1.17899   
     axis -90 -7.62852e-016 -20   XYZ
    dof rx
    limits (-90.0 20.0)
  end
  begin
     id 11 
     name lowerback
     direction -0.000416114 0.999912 -0.0132284   
     length 2.12109   
     axis 0 0 0   XYZ
    dof rx ry rz
    limits (-20.0 45.0)
           (-30.0 30.0)
           (-30.0 30.0)
  end
  begin
     id 12 
     name upperback
     direction -0.00136371 0.99809 0.0617608   
     length 2.10067   
     axis 0 0 0   XYZ
    dof rx ry rz
    limits (-20.0 45.0)
           (-30.0 30.0)
           (-30.0 30.0)
  end
  begin
     id 13 
     name thorax
     direction -3.43026e-005 0.997776 0.0666515   
     length 2.10618   
     axis 0 0 0   XYZ
    dof rx ry rz
    limits (-20.0 45.0)
           (-30.0 30.0)
           (-30.0 30.0)
  end
  begin
     id 14 
     name lowerneck
     direction 0.0398646 0.998418 0.0396592   
     length 1.83817   
     axis 0 0 0   XYZ
    dof rx ry rz
    limits (-20.0 45.0)
           (-30.0 30.0)
           (-30.0 30.0)
  end
  begin
     id 15 
     name upperneck
     direction -0.0367268 0.961527 -0.272244   
     length 1.81975   
     axis 0 0 0   XYZ
    dof rx ry rz
    limits (-20.0 45.0)
           (-30.0 30.0)
           (-30.0 30.0)
  end
  begin
     id 16
     name head
     direction -0.0182665 0.99536 -0.0944669  
     length 1.86026  
     axis 0 0 0   XYZ
    dof rx ry rz
    limits (-20.0 45.0)
           (-30.0 30.0)
           (-30.0 30.0)
  end
  begin
     id 17 
     name lclavicle
     direction 0.924239 0.361045 0.124212  
     length 3.26878  
     axis 0 0 0   XYZ
    dof ry rz
    limits (-20.0 10.0)
           (0.0 20.0)
  end
  begin
     id 18 
     name lhumerus
     direction 1 -4.48968e-011 -2.56583e-027   
     length 4.58538   
     axis 180 -30 -90   XYZ
    dof rx ry rz
    limits (-60.0 90.0)
           (-90.0 90.0)
           (-90.0 90.0)
  end
  begin
     id 19
     name lradius
     direction 1 -4.4898e-011 -5.50375e-027   
     length 2.68935   
     axis 180 -30 -90   XYZ
    dof rx
    limits (-10.0 170.0)
  end
  begin
     id 20
     name lwrist
     direction 1 -4.48939e-011 -1.48955e-026   
     length 1.34468   
     axis 9.0955e-015 90 90   XYZ
    dof ry
    limits (-180.0 0.0)
 end
  begin
     id 21 
     name lhand
     direction 1 -4.48936e-011 -2.97907e-026   
     length 0.585058   
     axis 1.90115e-014 90 90   XYZ
    dof rx rz
    limits (-90.0 90.0)
           (-45.0 45.0)
  end
  begin
     id 22 
     name lfingers
     direction 1 -4.49082e-011 -5.96235e-026   
     length 0.471689   
     axis 3.80223e-014 90 90   XYZ
    dof rx
    limits (0.0 90.0)
  end
  begin
     id 23
     name lthumb
     direction 0.707107 -6.3489e-011 0.707107   
     length 0.677253   
     axis -90 45 -3.84942e-014   XYZ
    dof rx rz
    limits (-45.0 45.0)
           (-45.0 45.0)
  end
  begin
     id 24 
     name rclavicle
     direction -0.923098 0.371783 0.0983239   
     length 3.19656  
     axis 0 0 0   XYZ 
    dof ry rz
    limits (-10.0 20.0)
           (-20.0 0.0)
  end
  begin
     id 25 
     name rhumerus
     direction -1 -4.48976e-011 -2.5492e-027  
     length 4.4745   
     axis 180 30 90   XYZ
    dof rx ry rz
    limits (-90.0 60.0)
           (-90.0 90.0)
           (-90.0 90.0)
  end
  begin
     id 26 
     name rradius
     direction -1 -4.48941e-011 -4.36555e-027   
     length 2.93896   
     axis 180 30 90   XYZ
    dof rx
    limits (-10.0 170.0)
  end
  begin
     id 27 
     name rwrist
     direction -1 -4.49044e-011 -1.49032e-026   
     length 1.46948   
     axis 9.0955e-015 -90 -90   XYZ
    dof ry
    limits (-180.0 0.0)
  end
  begin
     id 28
     name rhand
     direction -1 -4.48826e-011 -2.97749e-026   
     length 0.405092   
     axis 1.90115e-014 -90 -90   XYZ
    dof rx rz
    limits (-90.0 90.0)
           (-45.0 45.0)
  end
  begin
     id 29
     name rfingers
     direction -1 -4.49209e-011 -5.96602e-026   
     length 0.326596   
     axis 3.80223e-014 -90 -90   XYZ
    dof rx
    limits (0.0 90.0)
  end
  begin
     id 30
     name rthumb
     direction -0.707107 -6.34776e-011 0.707107   
     length 0.468928   
     axis -90 -45 3.84942e-014   XYZ
    dof rx rz
    limits (-45.0 45.0)
           (-45.0 45.0)
  end
:hierarchy
  begin
    root lhipjoint rhipjoint lowerback
    lhipjoint lfemur
    lfemur ltibia
    ltibia lfoot
    lfoot ltoes
    rhipjoint rfemur
    rfemur rtibia
    rtibia rfoot
    rfoot rtoes
    lowerback upperback
    upperback thorax
    thorax lowerneck lclavicle rclavicle
    lowerneck upperneck
    upperneck head
    lclavicle lhumerus
    lhumerus lradius
    lradius lwrist
    lwrist lhand lthumb
    lhand lfingers
    rclavicle rhumerus
    rhumerus rradius
    rradius rwrist
    rwrist rhand rthumb
    rhand rfingers
  end

#!OML:ASF H:\Punching\Project 1\Capture day 1\Session 1\female.ASF
:FULLY-SPECIFIED
:DEGREES
1
root 0.857489 15.6937 6.08336 5.46038 -2.07045 5.4818
lowerback -4.20929 -3.91551 -6.26747
upperback -7.05045 -5.17993 0.126065
thorax -4.42869 -2.29312 3.58272
lowerneck -0.019142 -8.07022 -3.01123
upperneck 24.1915 -10.5147 -3.29373
head 7.42571 -5.64625 -1.24373
rclavicle -2.5842e-014 -5.96354e-015
rhumerus -37.7553 27.9815 -90.5758
rradius 77.1969
rwrist -19.8021
rhand -4.77056 -10.7257
rfingers 7.12502
rthumb 21.0139 -39.6073
lclavicle -2.5842e-014 -5.96354e-015
lhumerus -41.4006 -14.8765 91.2286
lradius 105.668
lwrist 1.03487
lhand -9.54863 10.9486
lfingers 7.12502
lthumb 16.4183 40.2738
rfemur -6.75702 5.40888 5.7339
rtibia 29.3205
rfoot -19.6516 -22.1013
rtoes -11.7767
lfemur -8.90753 -9.55223 -22.1299
ltibia 14.661
lfoot -9.51858 15.2485
ltoes 2.53474
2
root 0.94524 15.6966 6.09676 5.37795 -2.13421 5.70819
lowerback -4.0274 -3.87289 -6.3685
upperback -6.99936 -5.13339 0.153121
thorax -4.47192 -2.26358 3.6788
lowerneck 0.139791 -8.07023 -2.89195
upperneck 23.2555 -10.4296 -3.70761
head 7.0564 -5.62128 -1.34491
rclavicle 4.52235e-014 2.26615e-014
rhumerus -38.0441 27.6143 -90.8014
rradius 74.7509
rwrist -19.1022
rhand -4.64394 -12.0513
rfingers 7.12502
rthumb 21.1355 -40.9193
lclavicle 4.52235e-014 2.26615e-014
lhumerus -42.3765 -14.6744 91.6797
lradius 103.411
lwrist 1.56086
lhand -9.53169 11.2128
lfingers 7.12502
lthumb 16.4346 40.5366
rfemur -6.98864 4.94518 5.01831
rtibia 29.8328
rfoot -19.253 -21.562
rtoes -12.6626
lfemur -8.62346 -9.07797 -22.7802
ltibia 14.2826
lfoot -9.31898 14.8363
ltoes 2.74693
3
root 1.03569 15.6975 6.11155 5.25101 -2.05745 5.90892
lowerback -3.81304 -3.85843 -6.35993
upperback -6.89875 -5.12687 0.142035
thorax -4.48774 -2.26218 3.67414
lowerneck -0.0143002 -8.07303 -2.99232
upperneck 22.7188 -10.3885 -3.83339
head 6.90578 -5.61295 -1.3546
rclavicle -1.49089e-014 -7.15625e-015
rhumerus -38.3204 26.8367 -90.949
rradius 72.1989
rwrist -18.0798
rhand -4.55697 -12.4508
rfingers 7.12502
rthumb 21.219 -41.3094
lclavicle -1.49089e-014 -7.15625e-015
lhumerus -43.214 -14.5106 92.0819
lradius 100.898
lwrist 2.07635
lhand -9.44585 11.6697
lfingers 7.12502
lthumb 16.5172 40.9866
rfemur -7.15677 4.32039 4.33901
rtibia 30.4607
rfoot -18.8714 -20.9708
rtoes -13.5712
lfemur -8.23634 -8.65955 -23.4066
ltibia 13.7899
lfoot -9.01929 14.3252
ltoes 2.85098
4
root 1.11938 15.7036 6.1239 5.24311 -2.31479 6.08633
lowerback -3.70087 -3.69089 -6.37999
upperback -6.88146 -4.91311 0.102642
thorax -4.55757 -2.15319 3.65585
lowerneck -0.434554 -8.03618 -3.27085
upperneck 22.956 -10.3411 -3.61996
head 7.08568 -5.59572 -1.2718
rclavicle -1.64991e-014 -1.90833e-014
rhumerus -38.6876 25.8145 -91.0543
rradius 69.4572
rwrist -17.267
rhand -4.30574 -12.638
rfingers 7.12502
rthumb 21.4603 -41.4693
lclavicle -1.64991e-014 -1.90833e-014
lhumerus -44.0343 -14.3981 92.4946
lradius 97.9662
lwrist 2.45373
lhand -9.03219 12.2324
lfingers 7.12502
lthumb 16.9154 41.5158
rfemur -7.65258 3.84893 3.66824
rtibia 31.1022
rfoot -18.2823 -20.3603
rtoes -14.0784
lfemur -7.94568 -8.11871 -23.9732
ltibia 13.2946
lfoot -8.8187 13.9834
ltoes 3.06426
5
root 1.20485 15.7059 6.13649 5.18003 -2.42489 6.27787
lowerback -3.53829 -3.58259 -6.3933
upperback -6.83657 -4.78098 0.0626378
thorax -4.61815 -2.08612 3.63341
lowerneck -0.742859 -8.01278 -3.46576
upperneck 22.9668 -10.2964 -3.52554
head 7.1601 -5.58049 -1.22516
rclavicle 5.06901e-015 -8.34896e-015
rhumerus -38.993 24.8019 -91.0879
rradius 66.8101
rwrist -16.4948
rhand -4.17707 -13.1117
rfingers 7.12502
rthumb 21.5839 -41.9289
lclavicle 5.06901e-015 -8.34896e-015
lhumerus -44.8375 -14.1989 92.8645
lradius 95.2076
lwrist 2.99184
lhand -8.46769 12.8396
lfingers 7.12502
lthumb 17.4588 42.0756
rfemur -8.0408 3.37763 3.00631
rtibia 31.8007
rfoot -17.7894 -19.832
rtoes -14.5861
lfemur -7.59453 -7.63965 -24.5606
ltibia 12.7581
lfoot -8.56291 13.5676
ltoes 3.24899
6
root 1.28889 15.708 6.14847 5.123 -2.54312 6.4642
lowerback -3.37553 -3.46543 -6.4032
upperback -6.80128 -4.638 0.00990253
thorax -4.69148 -2.01351 3.59579
lowerneck -1.12515 -7.97531 -3.68111
upperneck 23.1945 -10.2434 -3.35403
head 7.32475 -5.55849 -1.16161
rclavicle -1.96797e-014 -7.95139e-016
rhumerus -39.3081 23.668 -91.0519
rradius 64.143
rwrist -15.8025
rhand -4.13526 -13.5049
rfingers 7.12502
rthumb 21.6241 -42.3175
lclavicle -1.96797e-014 -7.95139e-016
lhumerus -45.6018 -13.9399 93.1915
lradius 92.3587
lwrist 3.5607
lhand -7.60653 13.523
lfingers 7.12502
lthumb 18.2874 42.6833
rfemur -8.48546 2.94576 2.36663
rtibia 32.5708
rfoot -17.283 -19.3566
rtoes -14.8812
lfemur -7.20995 -7.16733 -25.1315
ltibia 12.1368
lfoot -8.27231 13.1543
ltoes 3.45015
7
root 1.37112 15.7099 6.15966 5.07524 -2.66358 6.65494
lowerback -3.20876 -3.35108 -6.43381
upperback -6.778 -4.49996 -0.0490229
thorax -4.77851 -1.94183 3.56315
lowerneck -1.55509 -7.91385 -3.86702
upperneck 23.5885 -10.1637 -3.15517
head 7.55323 -5.52024 -1.09953
rclavicle -4.4329e-014 -1.94809e-014
rhumerus -39.6248 22.4821 -90.9533
rradius 61.4633
rwrist -15.241
rhand -4.21244 -13.8733
rfingers 7.12502
rthumb 21.5499 -42.6944
lclavicle -4.4329e-014 -1.94809e-014
lhumerus -46.3328 -13.595 93.4671
lradius 89.4536
lwrist 4.15698
lhand -6.47459 14.2584
lfingers 7.12502
lthumb 19.3761 43.313
rfemur -8.97813 2.56062 1.74289
rtibia 33.3889
rfoot -16.744 -18.954
rtoes -14.9794
lfemur -6.83054 -6.71034 -25.6951
ltibia 11.4963
lfoot -7.97987 12.7476
ltoes 3.67311
8
root 1.45149 15.7118 6.17011 5.03759 -2.77373 6.84676
lowerback -3.03547 -3.2545 -6.49022
upperback -6.76639 -4.38679 -0.103953
thorax -4.87725 -1.88055 3.54891
lowerneck -2.01421 -7.8172 -3.99106
upperneck 24.1058 -10.0389 -2.96509
head 7.82488 -5.45668 -1.05101
rclavicle -4.81059e-014 3.97569e-016
rhumerus -39.9334 21.2835 -90.7932
rradius 58.7739
rwrist -14.8026
rhand -4.43849 -14.1571
rfingers 7.12502
rthumb 21.3328 -43.0029
lclavicle -4.81059e-014 3.97569e-016
lhumerus -47.0327 -13.1374 93.6816
lradius 86.507
lwrist 4.75236
lhand -5.12914 15.0012
lfingers 7.12502
lthumb 20.6693 43.9206
rfemur -9.51956 2.22494 1.1433
rtibia 34.2671
rfoot -16.1855 -18.6359
rtoes -14.8602
lfemur -6.43616 -6.27764 -26.2474
ltibia 10.7922
lfoot -7.65917 12.3465
ltoes 3.92421
9
root 1.52963 15.714 6.17977 5.02077 -2.88497 7.03578
lowerback -2.86536 -3.18018 -6.58271
upperback -6.76629 -4.30349 -0.143463
thorax -4.98026 -1.83159 3.57017
lowerneck -2.49696 -7.67861 -4.04541
upperneck 24.7176 -9.85877 -2.79739
head 8.12881 -5.36286 -1.019
rclavicle 7.35503e-015 -7.95139e-016
rhumerus -40.2203 20.0991 -90.5657
rradius 56.0848
rwrist -14.4718
rhand -4.76961 -14.4155
rfingers 7.12502
rthumb 21.0148 -43.2969
lclavicle 7.35503e-015 -7.95139e-016
lhumerus -47.6917 -12.5673 93.8337
lradius 83.5094
lwrist 5.2949
lhand -3.68346 15.7097
lfingers 7.12502
lthumb 22.0579 44.4717
rfemur -10.1252 1.94572 0.573784
rtibia 35.1996
rfoot -15.6015 -18.4059
rtoes -14.5135
lfemur -6.03651 -5.86943 -26.7835
ltibia 10.0227
lfoot -7.31204 11.9653
ltoes 4.20916
10
root 1.60553 15.716 6.18948 5.00813 -3.00982 7.2179
lowerback -2.70099 -3.12528 -6.70838
upperback -6.76344 -4.24544 -0.165139
thorax -5.07148 -1.79353 3.62744
lowerneck -3.0201 -7.49184 -4.00692
upperneck 25.4171 -9.61327 -2.66918
head 8.46456 -5.23323 -1.01189
rclavicle 1.82882e-014 0
rhumerus -40.4553 18.926 -90.2571
rradius 53.3856
rwrist -14.1996
rhand -5.11965 -14.6181
rfingers 7.12502
rthumb 20.6784 -43.5365
lclavicle 1.82882e-014 0
lhumerus -48.3028 -11.9009 93.9265
lradius 80.4442
lwrist 5.67141
lhand -2.26443 16.3489
lfingers 7.12502
lthumb 23.4197 44.9438
rfemur -10.777 1.73373 0.040847
rtibia 36.1781
rfoot -14.9857 -18.2626
rtoes -13.912
lfemur -5.61404 -5.6991 -27.2796
ltibia 9.19469
lfoot -6.94197 11.8337
ltoes 4.52409
11
root 1.67919 15.7183 6.19909 5.00841 -3.13951 7.38614
lowerback -2.55117 -3.0889 -6.85693
upperback -6.75717 -4.21064 -0.167851
thorax -5.14595 -1.76601 3.71587
lowerneck -3.57204 -7.26628 -3.90185
upperneck 26.1877 -9.31894 -2.55967
head 8.8289 -5.07566 -1.01866
rclavicle 2.41523e-014 2.3059e-014
rhumerus -40.6307 17.7311 -89.8489
rradius 50.7029
rwrist -13.8973
rhand -5.39823 -14.8641
rfingers 7.12502
rthumb 20.4108 -43.8114
lclavicle 2.41523e-014 2.3059e-014
lhumerus -48.8542 -11.1666 93.9698
lradius 77.2718
lwrist 5.75338
lhand -0.961084 16.8798
lfingers 7.12502
lthumb 24.6695 45.3096
rfemur -11.4761 1.59258 -0.443638
rtibia 37.1941
rfoot -14.3446 -18.2234
rtoes -13.0227
lfemur -5.17528 -5.52395 -27.7562
ltibia 8.30661
lfoot -6.54122 11.7074
ltoes 4.8509
12
root 1.75069 15.7203 6.20918 5.00826 -3.28548 7.53127
lowerback -2.41026 -3.0624 -7.01388
upperback -6.73952 -4.18754 -0.152609
thorax -5.20038 -1.74436 3.82663
lowerneck -4.16975 -7.00745 -3.74215
upperneck 27.0355 -8.98513 -2.45851
head 9.23039 -4.89423 -1.03541
rclavicle -3.84648e-014 -2.22639e-014
rhumerus -40.7379 16.4755 -89.3218
rradius 48.04
rwrist -13.4584
rhand -5.56127 -15.0699
rfingers 7.12502
rthumb 20.2541 -44.0339
lclavicle -3.84648e-014 -2.22639e-014
lhumerus -49.3344 -10.3818 93.9656
lradius 73.9618
lwrist 5.42031
lhand 0.170125 17.2617
lfingers 7.12502
lthumb 25.7533 45.5389
rfemur -12.2074 1.53712 -0.867428
rtibia 38.2381
rfoot -13.6593 -18.2978
rtoes -11.8166
lfemur -4.7021 -5.33025 -28.2059
ltibia 7.35989
lfoot -6.11687 11.5871
ltoes 5.18816
